<?xml version="1.0" encoding="UTF-8" standalone="no"?>
<!-- Created with Inkscape (http://www.inkscape.org/) -->

<svg
   version="1.1"
   id="svg2"
   width="6600"
   height="3960"
   viewBox="0 0 6600 3960"
   sodipodi:docname="vecteezyTicketBlueMovie13319679.eps"
   xmlns="http://www.w3.org/2000/svg"
   xmlns:svg="http://www.w3.org/2000/svg">
  <defs
     id="defs6" />
  <sodipodi:namedview
     id="namedview4"
     pagecolor="#ffffff"
     bordercolor="#000000"
     borderopacity="0.25"
     inkscape:showpageshadow="2"
     inkscape:pageopacity="0.0"
     inkscape:pagecheckerboard="0"
     inkscape:deskcolor="#d1d1d1" />
  <g
     id="g8"
     inkscape:groupmode="layer"
     inkscape:label="ink_ext_XXXXXX"
     transform="matrix(1.3333333,0,0,-1.3333333,0,3960)">
    <g
       id="g10"
       transform="scale(0.1)">
      <path
         d="M 49500,0 H 0 V 29700 H 49500 V 0"
         style="fill:#ffffff;fill-opacity:1;fill-rule:nonzero;stroke:none"
         id="path12" />
      <path
         d="m 40707.2,20540 c -381,0 -689.8,308.9 -689.8,689.8 0,381 308.8,689.9 689.8,689.9 381,0 689.8,-308.9 689.8,-689.9 0,-380.9 -308.8,-689.8 -689.8,-689.8 z m 0,-2295.9 c -381,0 -689.8,308.8 -689.8,689.8 0,381 308.8,689.8 689.8,689.8 381,0 689.8,-308.8 689.8,-689.8 0,-381 -308.8,-689.8 -689.8,-689.8 z m 0,-2296 c -381,0 -689.8,308.9 -689.8,689.9 0,381 308.8,689.8 689.8,689.8 381,0 689.8,-308.8 689.8,-689.8 0,-381 -308.8,-689.9 -689.8,-689.9 z m 0,-2295.9 c -381,0 -689.8,308.9 -689.8,689.9 0,380.9 308.8,689.8 689.8,689.8 381,0 689.8,-308.9 689.8,-689.8 0,-381 -308.8,-689.9 -689.8,-689.9 z m 0,-2295.9 c -381,0 -689.8,308.8 -689.8,689.8 0,381 308.8,689.9 689.8,689.9 381,0 689.8,-308.9 689.8,-689.9 0,-381 -308.8,-689.8 -689.8,-689.8 z m 0,-2295.9 c -381,0 -689.8,308.8 -689.8,689.8 0,381 308.8,689.8 689.8,689.8 381,0 689.8,-308.8 689.8,-689.8 0,-381 -308.8,-689.8 -689.8,-689.8 z m 7714.5,11932.5 v 474 c -995.1,2.8 -1800.9,810.3 -1800.9,1806.1 0,94.9 7.4,188.1 21.5,279.1 h -5245.9 c 0.3,-8.7 0.6,-17.5 0.6,-26.3 0,-381 -308.8,-689.9 -689.8,-689.9 -381,0 -689.8,308.9 -689.8,689.9 0,8.8 0.3,17.6 0.6,26.3 H 11394.9 9917.12 8538.25 7514.1 3219.23 c -2.85,-995.1 -810.36,-1800.9 -1806.13,-1800.9 -1.76,0 -3.51,0 -5.27,0 v -667.3 c 272.68,-31.3 484.46,-262.8 484.46,-543.9 0,-281.1 -211.78,-512.6 -484.46,-543.9 v -597.3 c 272.68,-31.3 484.46,-262.8 484.46,-543.9 0,-281.1 -211.78,-512.5 -484.46,-543.9 v -597.3 c 272.68,-31.3 484.46,-262.8 484.46,-543.9 0,-281 -211.78,-512.5 -484.46,-543.9 v -597.2 c 272.68,-31.4 484.46,-262.9 484.46,-544 0,-281 -211.78,-512.5 -484.46,-543.9 v -597.2 c 272.68,-31.4 484.46,-262.9 484.46,-543.9 0,-281.1 -211.78,-512.6 -484.46,-543.9 v -597.3 c 272.68,-31.4 484.46,-262.8 484.46,-543.9 0,-281.1 -211.78,-512.6 -484.46,-543.9 v -597.3 c 272.68,-31.3 484.46,-262.8 484.46,-543.9 0,-281.1 -211.78,-512.6 -484.46,-543.9 v -635.7 c 1.76,0 3.51,0 5.27,0 995.77,0 1803.28,-805.8 1806.13,-1800.9 H 7514.1 v -4.2 h 3880.8 v 4.2 h 28622.6 c 0,1.8 -0.1,3.5 -0.1,5.3 0,380.9 308.8,689.8 689.8,689.8 381,0 689.8,-308.9 689.8,-689.8 0,-1.8 -0.1,-3.5 -0.1,-5.3 h 5234.6 c 8.5,985 805.2,1781.7 1790.2,1790.2 v 547.9 c -302.4,0 -547.6,245.1 -547.6,547.6 0,302.5 245.2,547.7 547.6,547.7 v 589.7 c -302.4,0 -547.6,245.2 -547.6,547.7 0,302.5 245.2,547.6 547.6,547.6 v 589.8 c -302.4,0 -547.6,245.2 -547.6,547.7 0,302.4 245.2,547.6 547.6,547.6 v 589.8 c -302.4,0 -547.6,245.2 -547.6,547.7 0,302.4 245.2,547.6 547.6,547.6 v 589.8 c -302.4,0 -547.6,245.2 -547.6,547.7 0,302.4 245.2,547.6 547.6,547.6 v 589.8 c -302.4,0 -547.6,245.2 -547.6,547.6 0,302.5 245.2,547.7 547.6,547.7 v 589.8 c -302.4,0 -547.6,245.2 -547.6,547.6 0,302.5 245.2,547.7 547.6,547.7"
         style="fill:#2a3b8a;fill-opacity:1;fill-rule:nonzero;stroke:none"
         id="path14" />
      <path
         d="m 40707.2,20540 c -381,0 -689.8,308.9 -689.8,689.8 0,381 308.8,689.9 689.8,689.9 381,0 689.8,-308.9 689.8,-689.9 0,-380.9 -308.8,-689.8 -689.8,-689.8 z m 0,-2295.9 c -381,0 -689.8,308.8 -689.8,689.8 0,381 308.8,689.8 689.8,689.8 381,0 689.8,-308.8 689.8,-689.8 0,-381 -308.8,-689.8 -689.8,-689.8 z m 0,-2296 c -381,0 -689.8,308.9 -689.8,689.9 0,381 308.8,689.8 689.8,689.8 381,0 689.8,-308.8 689.8,-689.8 0,-381 -308.8,-689.9 -689.8,-689.9 z m 0,-2295.9 c -381,0 -689.8,308.9 -689.8,689.9 0,380.9 308.8,689.8 689.8,689.8 381,0 689.8,-308.9 689.8,-689.8 0,-381 -308.8,-689.9 -689.8,-689.9 z m 0,-2295.9 c -381,0 -689.8,308.8 -689.8,689.8 0,381 308.8,689.9 689.8,689.9 381,0 689.8,-308.9 689.8,-689.9 0,-381 -308.8,-689.8 -689.8,-689.8 z m 0,-2295.9 c -381,0 -689.8,308.8 -689.8,689.8 0,381 308.8,689.8 689.8,689.8 381,0 689.8,-308.8 689.8,-689.8 0,-381 -308.8,-689.8 -689.8,-689.8 z m 7714.5,11932.5 v 474 c -995.1,2.8 -1800.9,810.3 -1800.9,1806.1 0,94.9 7.4,188.1 21.5,279.1 h -5245.9 c 0.3,-8.7 0.6,-17.5 0.6,-26.3 0,-381 -308.8,-689.9 -689.8,-689.9 -381,0 -689.8,308.9 -689.8,689.9 0,8.8 0.3,17.6 0.6,26.3 h -2.2 V 7449 h 1.7 c 0,1.8 -0.1,3.5 -0.1,5.3 0,380.9 308.8,689.8 689.8,689.8 381,0 689.8,-308.9 689.8,-689.8 0,-1.8 -0.1,-3.5 -0.1,-5.3 h 5234.6 c 8.5,985 805.2,1781.7 1790.2,1790.2 v 547.9 c -302.4,0 -547.6,245.1 -547.6,547.6 0,302.5 245.2,547.7 547.6,547.7 v 589.7 c -302.4,0 -547.6,245.2 -547.6,547.7 0,302.5 245.2,547.6 547.6,547.6 v 589.8 c -302.4,0 -547.6,245.2 -547.6,547.7 0,302.4 245.2,547.6 547.6,547.6 v 589.8 c -302.4,0 -547.6,245.2 -547.6,547.7 0,302.4 245.2,547.6 547.6,547.6 v 589.8 c -302.4,0 -547.6,245.2 -547.6,547.7 0,302.4 245.2,547.6 547.6,547.6 v 589.8 c -302.4,0 -547.6,245.2 -547.6,547.6 0,302.5 245.2,547.7 547.6,547.7 v 589.8 c -302.4,0 -547.6,245.2 -547.6,547.6 0,302.5 245.2,547.7 547.6,547.7"
         style="fill:#f03e24;fill-opacity:1;fill-rule:nonzero;stroke:none"
         id="path16" />
      <path
         d="m 14887.9,18613.2 v -827.6 h -638.6 v -3307.9 h -1075.4 v 3307.9 h -636 v 827.6 h 2350"
         style="fill:#e0e1ca;fill-opacity:1;fill-rule:nonzero;stroke:none"
         id="path18" />
      <path
         d="m 16940.9,18613.2 v -4135.5 h -1075.4 v 4135.5 h 1075.4"
         style="fill:#e0e1ca;fill-opacity:1;fill-rule:nonzero;stroke:none"
         id="path20" />
      <path
         d="m 20615.9,16812.4 h -1075.4 v 718.8 c 0,209 -11.5,339.4 -34.5,391.3 -23,51.8 -73.7,77.7 -152,77.7 -88.6,0 -144.8,-31.5 -168.6,-94.5 -23.8,-63 -35.7,-199.2 -35.7,-408.7 v -1920.9 c 0,-200.9 11.9,-332.1 35.7,-393.4 23.8,-61.3 77.5,-91.9 160.9,-91.9 80.1,0 132.4,30.7 157.1,92.1 24.7,61.5 37.1,205.8 37.1,432.8 v 519.8 h 1075.4 v -161.1 c 0,-428.1 -30.3,-731.7 -90.7,-910.7 -60.5,-179.1 -194.2,-336 -401.1,-470.7 -206.9,-134.7 -461.9,-202.1 -765,-202.1 -315,0 -574.7,57.1 -779.1,171.1 -204.3,114.1 -339.7,272.1 -406.1,473.9 -66.4,201.8 -99.6,505.3 -99.6,910.6 v 1208.2 c 0,298 10.2,521.5 30.6,670.5 20.5,149 81.3,292.5 182.7,430.4 101.3,138 241.7,246.5 421.4,325.7 179.7,79.2 386.1,118.8 619.5,118.8 316.7,0 578.1,-61.2 784.1,-183.7 206.1,-122.4 341.5,-275.1 406.2,-457.9 64.7,-182.8 97.1,-467.2 97.1,-853.2 v -392.9"
         style="fill:#e0e1ca;fill-opacity:1;fill-rule:nonzero;stroke:none"
         id="path22" />
      <path
         d="M 24297.2,18613.2 23680.4,16746 24356,14477.7 h -1111.2 l -435.5,1772.8 v -1772.8 h -1075.4 v 4135.5 h 1075.4 v -1606.6 l 479,1606.6 h 1008.9"
         style="fill:#e0e1ca;fill-opacity:1;fill-rule:nonzero;stroke:none"
         id="path24" />
      <path
         d="m 25273.6,18613.2 h 1793.1 v -827.6 h -717.8 v -784.2 h 671.9 v -786.7 h -671.9 v -909.3 h 789.3 v -827.7 h -1864.6 v 4135.5"
         style="fill:#e0e1ca;fill-opacity:1;fill-rule:nonzero;stroke:none"
         id="path26" />
      <path
         d="m 30276.8,18613.2 v -827.6 h -638.5 v -3307.9 h -1075.4 v 3307.9 h -636.1 v 827.6 h 2350"
         style="fill:#e0e1ca;fill-opacity:1;fill-rule:nonzero;stroke:none"
         id="path28" />
      <path
         d="m 6428.97,8971.2 h 314.56 c 102.62,0 182.14,26.6 238.56,79.9 56.4,53.2 84.61,128.2 84.61,225.1 v 409.2 c 0,96.9 -28.21,172 -84.61,225.2 -56.42,53.2 -135.94,79.8 -238.56,79.8 h -314.56 v 185.5 h 308.83 c 111.53,0 206.83,-19.4 285.88,-58.3 79.02,-38.9 139.26,-95.6 180.7,-170.2 41.43,-74.6 62.15,-164.4 62.15,-269.6 v -393.9 c 0,-105.2 -20.72,-195.1 -62.15,-269.6 -41.44,-74.6 -101.83,-131.4 -181.18,-170.2 -79.36,-38.9 -174.82,-58.4 -286.36,-58.4 h -307.87 z m -131.94,1204.7 h 195.04 V 8785.7 h -195.04 v 1390.2"
         style="fill:#e0e1ca;fill-opacity:1;fill-rule:nonzero;stroke:none"
         id="path30" />
      <path
         d="m 7626.98,9276.2 h 731.43 v -185.5 h -731.43 z m 276.32,899.7 h 166.36 L 8582.14,8785.7 H 8371.79 L 7986.48,9907.3 7601.16,8785.7 h -210.34 l 512.48,1390.2"
         style="fill:#e0e1ca;fill-opacity:1;fill-rule:nonzero;stroke:none"
         id="path32" />
      <path
         d="m 8955.99,10062.2 h 195.04 V 8785.7 h -195.04 z m -392.97,113.7 H 9544 v -185.5 h -980.98 v 185.5"
         style="fill:#e0e1ca;fill-opacity:1;fill-rule:nonzero;stroke:none"
         id="path34" />
      <path
         d="m 9751.47,9276.2 h 731.43 v -185.5 h -731.43 z m 276.33,899.7 h 166.4 l 512.4,-1390.2 h -210.3 L 10111,9907.3 9725.65,8785.7 h -210.34 l 512.49,1390.2"
         style="fill:#e0e1ca;fill-opacity:1;fill-rule:nonzero;stroke:none"
         id="path36" />
      <path
         d="m 10864.4,8990.3 h 204.6 v -204.6 h -204.6 z m 0,797.4 h 204.6 v -204.6 h -204.6 v 204.6"
         style="fill:#e0e1ca;fill-opacity:1;fill-rule:nonzero;stroke:none"
         id="path38" />
      <path
         d="m 12193.4,8785.7 h -195.1 v 1178 l -197.9,-121.5 v 201.8 l 197.9,131.9 h 195.1 V 8785.7"
         style="fill:#e0e1ca;fill-opacity:1;fill-rule:nonzero;stroke:none"
         id="path40" />
      <path
         d="m 12710.2,8812.5 c -54.5,27.4 -98.8,67.2 -132.9,119.5 -34.1,52.3 -56.9,115.1 -68.4,188.4 v 0.9 h 195.1 v -0.9 c 7,-51 27.4,-90.7 61.1,-119.1 33.8,-28.3 77.8,-42.5 132,-42.5 62.4,0 110.7,20.9 144.8,62.6 34.1,41.8 51.2,100.6 51.2,176.4 v 116.7 c 0,75.2 -17.1,133.7 -51.2,175.4 -34.1,41.8 -82.4,62.6 -144.8,62.6 -33.8,0 -66.3,-9.5 -97.5,-28.6 -31.3,-19.2 -58.7,-45.9 -82.3,-80.4 h -177.8 v 732.4 h 708.5 v -185.5 h -513.5 v -312.6 c 24.3,19.7 51.3,35 81.3,45.9 30,10.8 60.6,16.2 91.8,16.2 80.3,0 149,-16.5 206,-49.7 57.1,-33.1 100.4,-81.6 130.1,-145.3 29.6,-63.8 44.4,-140.6 44.4,-230.4 v -116.7 c 0,-89.8 -15.3,-166.7 -45.9,-230.4 -30.6,-63.7 -75.2,-112.3 -133.8,-145.8 -58.7,-33.5 -129.1,-50.2 -211.3,-50.2 -70.1,0 -132.4,13.7 -186.9,41.1"
         style="fill:#e0e1ca;fill-opacity:1;fill-rule:nonzero;stroke:none"
         id="path42" />
      <path
         d="m 13551.1,8990.3 h 204.6 v -204.6 h -204.6 v 204.6"
         style="fill:#e0e1ca;fill-opacity:1;fill-rule:nonzero;stroke:none"
         id="path44" />
      <path
         d="m 14354.2,8785.7 h -195 v 1178 l -198,-121.5 v 201.8 l 198,131.9 h 195 V 8785.7"
         style="fill:#e0e1ca;fill-opacity:1;fill-rule:nonzero;stroke:none"
         id="path46" />
      <path
         d="m 15005.3,8785.7 h -195 v 1178 l -197.9,-121.5 v 201.8 l 197.9,131.9 h 195 V 8785.7"
         style="fill:#e0e1ca;fill-opacity:1;fill-rule:nonzero;stroke:none"
         id="path48" />
      <path
         d="m 26783.9,10052.3 h 195 V 8775.8 h -195 z m -393,113.7 h 981 v -185.5 h -981 v 185.5"
         style="fill:#e0e1ca;fill-opacity:1;fill-rule:nonzero;stroke:none"
         id="path50" />
      <path
         d="m 27758.1,8775.8 h -195 V 10166 h 195 V 8775.8"
         style="fill:#e0e1ca;fill-opacity:1;fill-rule:nonzero;stroke:none"
         id="path52" />
      <path
         d="m 29101.5,10166 h 182.6 V 8775.8 h -190.3 V 9817 l 9.6,-61.1 -342.3,-786.9 h -135.8 l -342.2,767.7 9.5,80.3 V 8775.8 h -190.3 V 10166 h 182.7 l 408.2,-917.8 408.3,917.8"
         style="fill:#e0e1ca;fill-opacity:1;fill-rule:nonzero;stroke:none"
         id="path54" />
      <path
         d="m 29723,8961.3 h 798.3 V 8775.8 H 29723 Z m 0,597.6 h 693.1 V 9373.4 H 29723 Z m 0,607.1 h 798.3 V 9980.5 H 29723 Z m -94.7,0 h 195.1 V 8775.8 h -195.1 V 10166"
         style="fill:#e0e1ca;fill-opacity:1;fill-rule:nonzero;stroke:none"
         id="path56" />
      <path
         d="m 30746,8980.4 h 204.6 V 8775.8 H 30746 Z m 0,797.4 h 204.6 V 9573.2 H 30746 v 204.6"
         style="fill:#e0e1ca;fill-opacity:1;fill-rule:nonzero;stroke:none"
         id="path58" />
      <path
         d="m 32075,8775.8 h -195 v 1178 l -197.9,-121.5 v 201.8 l 197.9,131.9 h 195 V 8775.8"
         style="fill:#e0e1ca;fill-opacity:1;fill-rule:nonzero;stroke:none"
         id="path60" />
      <path
         d="m 32892,9586.6 c 33.5,41.5 50.2,99.8 50.2,175 v 1 c 0,73.2 -16.7,130 -50.2,170.1 -33.5,40.2 -80.8,60.3 -142,60.3 -61.8,0 -109.4,-20.1 -142.9,-60.3 -33.5,-40.1 -50.2,-97.2 -50.2,-171.1 v -1 c 0,-75.2 16.7,-133.3 50.2,-174.5 33.5,-41.1 81.1,-61.6 142.9,-61.6 61.2,0 108.5,20.7 142,62.1 z m -9.1,-120.5 -0.9,-34.4 c -16,-29.3 -40,-50.8 -72.2,-64.5 -32.2,-13.7 -70.3,-20.6 -114.3,-20.6 -66.3,0 -124.6,16.9 -174.9,50.7 -50.4,33.8 -89.4,81.4 -117.2,143 -27.7,61.5 -41.6,132.7 -41.6,213.6 v 1 c 0,89.9 15.2,166.7 45.5,230.4 30.2,63.8 74.5,112.2 132.9,145.3 58.3,33.2 128.2,49.8 209.8,49.8 81.6,0 151.4,-16.9 209.4,-50.7 58,-33.8 102.2,-82.9 132.4,-147.2 30.3,-64.4 45.5,-141.9 45.5,-232.4 v -0.9 c 0,-49.8 -6.4,-102.8 -19.2,-159.2 -12.7,-56.4 -30.9,-112.4 -54.5,-167.8 -3.8,-8.3 -7.6,-16.8 -11.4,-25.4 -3.9,-8.6 -8,-17 -12.5,-25.3 l -296.4,-595.7 H 32533 l 349.9,690.3"
         style="fill:#e0e1ca;fill-opacity:1;fill-rule:nonzero;stroke:none"
         id="path62" />
      <path
         d="m 33371.5,8980.4 h 204.6 v -204.6 h -204.6 z m 0,797.4 h 204.6 v -204.6 h -204.6 v 204.6"
         style="fill:#e0e1ca;fill-opacity:1;fill-rule:nonzero;stroke:none"
         id="path64" />
      <path
         d="m 34331,9001 c 32.8,36 49.2,87.8 49.2,155.4 v 632 c 0,67.5 -16.3,119.3 -48.8,155.3 -32.5,36 -83.5,54.1 -152.9,54.1 -69.5,0 -120.5,-18.1 -153,-54.1 -32.5,-36 -48.8,-87.8 -48.8,-155.3 v -632 c 0,-67.6 16.4,-119.4 49.3,-155.4 32.8,-36 83.6,-54 152.5,-54 68.8,0 119.6,18 152.5,54 z m -448.5,-135.3 c -67.2,69.5 -100.8,166.4 -100.8,290.7 v 632 c 0,124.9 33.7,221.9 101.3,291.1 67.6,69.1 166.1,103.7 295.5,103.7 130,0 228.6,-34.4 295.9,-103.2 67.2,-68.9 100.8,-166.1 100.8,-291.6 v -632 c 0,-125 -33.8,-222 -101.3,-291.2 -67.6,-69.1 -166,-103.7 -295.4,-103.7 -130.1,0 -228.7,34.7 -296,104.2"
         style="fill:#e0e1ca;fill-opacity:1;fill-rule:nonzero;stroke:none"
         id="path66" />
      <path
         d="m 35373.1,9001 c 32.8,36 49.3,87.8 49.3,155.4 v 632 c 0,67.5 -16.3,119.3 -48.8,155.3 -32.5,36 -83.5,54.1 -153,54.1 -69.5,0 -120.5,-18.1 -153,-54.1 -32.5,-36 -48.7,-87.8 -48.7,-155.3 v -632 c 0,-67.6 16.4,-119.4 49.2,-155.4 32.8,-36 83.7,-54 152.5,-54 68.9,0 119.7,18 152.5,54 z m -448.4,-135.3 c -67.3,69.5 -100.9,166.4 -100.9,290.7 v 632 c 0,124.9 33.8,221.9 101.4,291.1 67.5,69.1 166,103.7 295.4,103.7 130.1,0 228.7,-34.4 295.9,-103.2 67.3,-68.9 100.9,-166.1 100.9,-291.6 v -632 c 0,-125 -33.8,-222 -101.3,-291.2 -67.6,-69.1 -166.1,-103.7 -295.5,-103.7 -130,0 -228.7,34.7 -295.9,104.2"
         style="fill:#e0e1ca;fill-opacity:1;fill-rule:nonzero;stroke:none"
         id="path68" />
      <path
         d="m 42742,14235.5 c 8.5,-0.8 17.1,-2.4 25.7,-2.4 1140.6,-0.2 2281.1,-0.1 3421.7,-0.1 8.1,0 16.1,0 25.4,0 0,-102 0,-201.4 0,-303.7 -5.8,-0.4 -11.5,-1.4 -17.2,-1.4 -1146.6,0 -2293.1,0 -3439.6,0.1 -5.4,0 -10.7,1.5 -16,2.3 0,101.8 0,203.5 0,305.2"
         style="fill:#3b3738;fill-opacity:1;fill-rule:nonzero;stroke:none"
         id="path70" />
      <path
         d="m 42742,13093.7 c 7.5,-0.1 15.1,-0.4 22.7,-0.4 1142.3,0 2284.6,0 3426.9,0 7.5,0 14.9,0 23.3,0 0,-76 0,-149.1 0,-225.1 -8.4,0 -15.9,0 -23.3,0 -1142.3,0 -2284.6,0 -3426.9,-0.1 -7.6,0 -15.2,-0.4 -22.7,-0.7 0,75.4 0,150.9 0,226.3"
         style="fill:#3b3738;fill-opacity:1;fill-rule:nonzero;stroke:none"
         id="path72" />
      <path
         d="m 42742,18318.7 c 8.1,-0.3 16.2,-1 24.3,-1 1141.2,-0.1 2282.5,-0.1 3423.7,-0.1 8,0 16,0 25,0 0,-76.2 0,-149.3 0,-225 -8.4,0 -15.8,0 -23.3,0 -1142.9,0 -2285.8,0 -3428.6,0 -7.1,0 -14.1,-0.1 -21.1,-0.1 0,75.4 0,150.8 0,226.2"
         style="fill:#3b3738;fill-opacity:1;fill-rule:nonzero;stroke:none"
         id="path74" />
      <path
         d="m 42742,17750.5 c 8.1,-0.4 16.2,-1 24.3,-1 1141.7,-0.1 2283.4,-0.1 3425.1,-0.1 24.6,0 24.6,0 24.6,-39.5 0,-60.5 0,-120.9 0,-185.5 -8.3,0 -15.6,0 -22.9,0 -1142.8,0 -2285.6,0 -3428.4,0 -7.6,0 -15.2,-0.1 -22.7,-0.2 0,75.4 0,150.8 0,226.3"
         style="fill:#3b3738;fill-opacity:1;fill-rule:nonzero;stroke:none"
         id="path76" />
      <path
         d="m 42742,13419.9 c 8,-0.7 16.1,-2.1 24.1,-2.1 1141.1,-0.1 2282.2,-0.1 3423.4,-0.1 8,0 16,0 25.3,0 0,-74 0,-145.3 0,-219.6 -5.8,-0.5 -11.5,-1.3 -17.2,-1.3 -1146.6,-0.1 -2293.1,-0.1 -3439.6,0 -5.3,0 -10.7,1.4 -16,2.1 0,73.7 0,147.4 0,221"
         style="fill:#3b3738;fill-opacity:1;fill-rule:nonzero;stroke:none"
         id="path78" />
      <path
         d="m 42742,12520.1 c 8.1,-0.1 16.2,-0.2 24.3,-0.2 1242.8,-0.1 2485.5,-0.1 3728.3,-0.1 7.4,0 14.9,0 23.4,0 0,-47.4 0,-92.6 0,-140.5 -5,-0.5 -10.2,-1.4 -15.3,-1.4 -1252,-0.1 -2503.9,-0.1 -3755.9,-0.1 -1.6,0 -3.2,0.2 -4.8,0.3 0,47.3 0,94.7 0,142"
         style="fill:#3b3738;fill-opacity:1;fill-rule:nonzero;stroke:none"
         id="path80" />
      <path
         d="m 42742,16771.7 c 7.5,-0.2 15.1,-0.8 22.6,-0.8 1142.3,0 2284.6,0 3426.9,0 24.5,0 24.5,0 24.5,-39.5 0,-35.9 0,-71.7 0,-112 -8.3,0 -15.6,0 -22.9,0 -1143.3,0 -2286.7,0 -3430,0 -7.1,0 -14.1,-0.2 -21.1,-0.2 0,50.8 0,101.7 0,152.5"
         style="fill:#3b3738;fill-opacity:1;fill-rule:nonzero;stroke:none"
         id="path82" />
      <path
         d="m 42742,17092.7 c 8.1,-0.3 16.2,-0.9 24.3,-0.9 1141.6,0 2283.2,0 3424.8,-0.1 24.1,0 25,10.2 24.9,-41.4 0,-27.2 -0.2,-54.4 0,-81.6 0.2,-15.4 -3.9,-22.7 -13.7,-21.5 -5.3,0.6 -10.8,0.1 -16.2,0.1 -1140,0 -2279.9,0 -3419.9,-0.1 -8.1,0 -16.2,-1.2 -24.2,-1.8 0,49.1 0,98.2 0,147.3"
         style="fill:#3b3738;fill-opacity:1;fill-rule:nonzero;stroke:none"
         id="path84" />
      <path
         d="m 42742,16524.4 c 7.5,-0.2 15.1,-0.8 22.7,-0.8 1142.4,0 2284.8,0 3427.2,0 24.1,0 24.1,0 24.1,-40 0,-34.8 0,-69.6 0,-107.3 -8.8,0 -15.6,0 -22.5,0 -1144.6,0 -2289.2,0 -3433.7,0 -6,0 -11.9,0.5 -17.8,0.8 0,49.1 0,98.2 0,147.3"
         style="fill:#3b3738;fill-opacity:1;fill-rule:nonzero;stroke:none"
         id="path86" />
      <path
         d="m 42742,14477.6 c 7.5,-0.2 15.1,-0.5 22.7,-0.5 1142.3,-0.1 2284.7,-0.1 3427.1,-0.1 7.4,0 14.8,0 24.1,0 0,-43.9 0.5,-84.9 -0.5,-125.8 -0.1,-6.2 -6.5,-14.9 -11,-17.3 -5.9,-3 -12.8,-1 -19.3,-1 -1139.2,0 -2278.3,0 -3417.4,-0.1 -8.6,0 -17.2,-1.7 -25.7,-2.6 0,49.1 0,98.2 0,147.4"
         style="fill:#3b3738;fill-opacity:1;fill-rule:nonzero;stroke:none"
         id="path88" />
      <path
         d="m 42742,12772.7 c 7.5,-0.1 15.1,-0.3 22.7,-0.3 1142.2,0 2284.4,0 3426.6,0 7.5,0 14.9,0 23.5,0 0,-49.5 0,-96.5 0,-147.3 -5,0 -10.2,0 -15.3,0 -1150.4,0 -2300.7,0 -3451,0 -2.2,0 -4.4,0.2 -6.5,0.3 0,49.1 0,98.2 0,147.3"
         style="fill:#3b3738;fill-opacity:1;fill-rule:nonzero;stroke:none"
         id="path90" />
      <path
         d="m 42742,13662 c 7.5,-0.2 15.1,-0.4 22.7,-0.4 1142.2,-0.1 2284.5,-0.1 3426.8,-0.1 7.4,0 14.8,0 23.3,0 0,-47.8 0,-92.8 0,-140.9 -8.5,0 -16,0 -23.4,0 -1142.2,0 -2284.5,0 -3426.7,-0.1 -7.6,0 -15.2,-0.4 -22.7,-0.6 0,47.3 0,94.7 0,142.1"
         style="fill:#3b3738;fill-opacity:1;fill-rule:nonzero;stroke:none"
         id="path92" />
      <path
         d="m 42742,15377.3 c 6.5,0.2 12.9,0.4 19.4,0.4 1143.5,0.1 2286.9,0.1 3430.4,0.1 7.4,0 14.9,0 23.2,0 0,-48 0,-93.2 0,-141.9 -5.4,-0.4 -11.1,-1.2 -16.7,-1.2 -1147.8,-0.1 -2295.6,-0.1 -3443.4,0 -4.3,0 -8.6,0.4 -12.9,0.6 0,47.3 0,94.7 0,142"
         style="fill:#3b3738;fill-opacity:1;fill-rule:nonzero;stroke:none"
         id="path94" />
      <path
         d="m 42742,17413.7 c 6.4,0.6 12.9,1.7 19.3,1.7 1144,0.1 2288,0.1 3432.1,0.1 6.8,0 13.7,0 21.6,0 0,-47.3 0,-91.4 0,-138.4 -8.3,0 -15.7,0 -23.1,0 -1142.4,0 -2284.8,0 -3427.2,0 -7.6,0 -15.2,-0.1 -22.7,-0.2 0,45.6 0,91.2 0,136.8"
         style="fill:#3b3738;fill-opacity:1;fill-rule:nonzero;stroke:none"
         id="path96" />
      <path
         d="m 42742,18976.5 c 8.1,-0.4 16.1,-1.2 24.2,-1.2 1239.8,-0.1 2479.6,-0.1 3719.3,-0.1 37.9,0 37.9,0 31.7,-67.1 -1258.2,0 -2516.7,0 -3775.2,0 0,22.8 0,45.6 0,68.4"
         style="fill:#3b3738;fill-opacity:1;fill-rule:nonzero;stroke:none"
         id="path98" />
      <path
         d="m 42742,15545.7 c 7.5,-0.2 15.1,-0.6 22.7,-0.6 1243,0 2485.9,0 3728.9,0 7.5,0 15.1,0 22.8,0 1,-4.6 2.1,-7.8 2.3,-11.1 2.7,-48 2.7,-48.2 -27,-48.3 -1242.4,-2.7 -2484.7,-5.3 -3727,-8 -7.6,0 -15.2,-0.2 -22.7,-0.4 0,22.8 0,45.6 0,68.4"
         style="fill:#3b3738;fill-opacity:1;fill-rule:nonzero;stroke:none"
         id="path100" />
      <path
         d="m 42742,12272.8 c 7.5,-0.1 15.1,-0.2 22.7,-0.2 1243.4,0 2486.8,0 3730.3,0 7.4,0 14.8,0 23.1,0 0,-21.6 0,-40.3 0,-62.1 -8.9,0 -16.8,0 -24.8,0 -1242.3,0 -2484.7,0 -3727,0 -8.1,0 -16.2,-0.5 -24.3,-0.8 0,21 0,42.1 0,63.1"
         style="fill:#3b3738;fill-opacity:1;fill-rule:nonzero;stroke:none"
         id="path102" />
      <path
         d="m 42742,14809.1 c 6.5,0.1 12.9,0.4 19.4,0.4 1143.4,0 2286.7,0 3430.1,0 7.5,0 14.9,0 21.5,0 1.4,-3.8 2.3,-5.1 2.4,-6.6 2.8,-59.7 2.8,-59.7 -33.9,-59.7 -1138.5,0 -2277,0 -3415.4,-0.1 -8.1,0 -16.1,-1.6 -24.1,-2.4 0,22.8 0,45.6 0,68.4"
         style="fill:#3b3738;fill-opacity:1;fill-rule:nonzero;stroke:none"
         id="path104" />
      <path
         d="m 42742,15703.6 c 6.4,-0.3 12.9,-0.7 19.4,-0.7 1240.9,-0.8 2481.7,-1.6 3722.5,-2.3 10.7,0 21.4,0 33.7,0 0.6,-20.8 1.1,-38.7 1.7,-59.8 -9.2,0 -16.6,0 -24,0 -1244.1,0 -2488.2,0 -3732.2,0 -7.1,0 -14.1,-0.2 -21.1,-0.4 0,21.1 0,42.1 0,63.2"
         style="fill:#3b3738;fill-opacity:1;fill-rule:nonzero;stroke:none"
         id="path106" />
      <path
         d="m 42742,14966.9 c 6.5,0.2 12.9,0.5 19.4,0.5 1143.4,0 2286.8,0 3430.2,0 7.4,0 14.9,0 23.4,0 0,-20.4 0,-38.4 0,-61.1 -8.6,0 -16.9,0 -25.3,0 -1141.2,0 -2282.4,0 -3423.6,-0.2 -8.1,0 -16.1,-1.5 -24.1,-2.3 0,21 0,42.1 0,63.1"
         style="fill:#3b3738;fill-opacity:1;fill-rule:nonzero;stroke:none"
         id="path108" />
      <path
         d="m 42742,18729.2 c 8.1,-0.4 16.1,-1.2 24.2,-1.2 1242.4,-0.1 2484.7,0 3727,0 7.6,0 15.1,0 24.2,0 0,-18.9 0,-35.9 0,-56.3 -4.7,-0.5 -10.4,-1.5 -16,-1.5 -1248.3,-0.1 -2496.6,-0.1 -3744.9,-0.1 -4.8,0 -9.7,0.8 -14.5,1.2 0,19.3 0,38.6 0,57.9"
         style="fill:#3b3738;fill-opacity:1;fill-rule:nonzero;stroke:none"
         id="path110" />
      <path
         d="m 42742,11946.6 c 6.4,0.3 12.9,0.9 19.4,0.9 1245.2,0 2490.3,0 3735.5,0 6.8,0 13.7,0 21.3,0 0,-20.3 0,-37.4 0,-57.9 -8.7,0 -16.6,0 -24.6,0 -1243,0 -2486,0 -3729,0 -7.5,0 -15.1,-0.6 -22.6,-0.9 0,19.3 0,38.6 0,57.9"
         style="fill:#3b3738;fill-opacity:1;fill-rule:nonzero;stroke:none"
         id="path112" />
      <path
         d="m 42742,11783.5 c 8,-0.6 16.1,-1.7 24.2,-1.7 1242.4,-0.1 2484.8,-0.1 3727.3,-0.1 7.9,0 15.9,0 24.7,0 0,-20.5 0,-37.5 0,-57.9 -6.7,0 -12.5,0 -18.2,0 -1247.3,0 -2494.6,0 -3741.9,0.1 -5.4,0 -10.8,1.1 -16.1,1.7 0,19.3 0,38.6 0,57.9"
         style="fill:#3b3738;fill-opacity:1;fill-rule:nonzero;stroke:none"
         id="path114" />
      <path
         d="m 42742,19455.3 c 6.4,0.4 12.9,1.2 19.4,1.2 1245,0.1 2490,0.1 3735,0.1 6.9,0 13.8,0 19.7,0 1.5,-4.2 2.4,-5.7 2.5,-7.2 2.1,-50.7 2.1,-50.7 -28.7,-50.7 -1241.2,0 -2482.4,0 -3723.7,0 -8.1,0 -16.1,-0.8 -24.2,-1.3 0,19.3 0,38.6 0,57.9"
         style="fill:#3b3738;fill-opacity:1;fill-rule:nonzero;stroke:none"
         id="path116" />
      <path
         d="m 42742,19297.5 c 8.1,-0.5 16.1,-1.3 24.2,-1.3 1241.2,-0.1 2482.4,-0.1 3723.7,-0.1 31.2,0 31.2,0 28,-56.3 -5.3,-0.5 -11,-1.5 -16.7,-1.5 -1248.2,0 -2496.5,0 -3744.7,0 -4.8,0 -9.7,0.8 -14.5,1.3 0,19.3 0,38.6 0,57.9"
         style="fill:#3b3738;fill-opacity:1;fill-rule:nonzero;stroke:none"
         id="path118" />
      <path
         d="m 42742,18476.6 c 6.4,0.5 12.9,1.4 19.3,1.4 1144,0.1 2288,0.1 3431.9,0.1 6.9,0 13.8,0 19.8,0 1.4,-4.2 2.3,-5.6 2.4,-7.1 2.3,-50.8 2.3,-50.8 -28.7,-50.8 -1140.2,0 -2280.3,0 -3420.5,0 -8.1,0 -16.2,-1 -24.2,-1.5 0,19.3 0,38.6 0,57.9"
         style="fill:#3b3738;fill-opacity:1;fill-rule:nonzero;stroke:none"
         id="path120" />
      <path
         d="m 42742,17987.2 c 686.3,0.1 1372.6,0.1 2059,0.2 464,0 928,0 1392.1,0 6.9,0 13.9,0 21.8,0 0,-19.4 0,-36.5 0,-57.9 -7.2,0 -14.5,0 -21.8,0 -1142.8,0 -2285.6,0 -3428.4,0 -7.6,0 -15.2,-0.1 -22.7,-0.1 0,19.3 0,38.6 0,57.8"
         style="fill:#3b3738;fill-opacity:1;fill-rule:nonzero;stroke:none"
         id="path122" />
      <path
         d="m 42742,16271.9 c 6.9,0.7 13.9,1.9 20.9,1.9 1143.3,0.1 2286.7,0.1 3430,0.1 6.9,0 13.9,0 21.9,0 0,-20.5 0,-38.5 0,-60.7 -5.5,0 -11.2,0 -16.9,0 -1147.1,0 -2294.2,0 -3441.4,0 -4.8,0 -9.7,0.5 -14.5,0.8 0,19.3 0,38.6 0,57.9"
         style="fill:#3b3738;fill-opacity:1;fill-rule:nonzero;stroke:none"
         id="path124" />
      <path
         d="m 42742,15866.7 c 6.4,0.7 12.8,2.1 19.3,2.1 1144.4,0.1 2288.8,0.1 3433.2,0.1 6.4,0 12.8,0 20.3,0 0,-20.6 0,-38.6 0,-60.8 -5.4,0 -11.1,0 -16.8,0 -1147.2,0 -2294.3,0 -3441.5,0 -4.8,0 -9.7,0.5 -14.5,0.7 0,19.3 0,38.6 0,57.9"
         style="fill:#3b3738;fill-opacity:1;fill-rule:nonzero;stroke:none"
         id="path126" />
      <path
         d="m 42742,13830.3 c 8,-0.8 16,-2.3 24.1,-2.3 1138.4,-0.1 2276.8,-0.1 3415.3,-0.1 4.3,0 8.6,0.1 12.9,0 21.2,-0.1 22.1,-1.5 21.7,-35.6 -0.1,-6 -0.5,-12 -0.9,-20.8 -6.1,-0.5 -11.8,-1.3 -17.5,-1.3 -1146.6,-0.1 -2293.1,-0.1 -3439.6,0 -5.4,0 -10.7,1.5 -16,2.3 0,19.3 0,38.6 0,57.8"
         style="fill:#3b3738;fill-opacity:1;fill-rule:nonzero;stroke:none"
         id="path128" />
      <path
         d="m 46392.4,11400.6 c -31.7,3.7 -65.1,-11.3 -86.3,-34.9 -16.1,-18 -24,-42.2 -20.9,-74.8 2.9,-31.4 17.2,-45.6 32.7,-58 30.9,-24.8 61.6,-10.9 91.8,3.9 9.3,4.5 19.5,12.1 25.8,23.4 20.6,36.6 14,76.5 3.7,117.4 -7.5,29.9 -22.6,19.8 -35.5,22.8 -3.7,0.9 -7.5,0.2 -11.3,0.2 z m -38.2,-243.3 c -27,13.4 -50.6,34.9 -68.5,71.3 -26.2,53.3 -20.8,129.7 6.3,175.7 18.7,31.7 42.3,46.8 68,59.6 46.4,23.2 89.2,2 128,-30.6 43.6,-36.5 77.4,-93.7 93.8,-173.5 6,-29.1 9,-56.7 4.7,-88.9 -12.5,125.1 -68.1,177 -134.4,218.4 6.9,-33.3 14.8,-60.8 18.1,-89.7 6.3,-56.1 -12.7,-93.6 -40.1,-122.4 -8.3,-8.6 -18.1,-13.4 -27.3,-19.9 -16.2,0 -32.4,0 -48.6,0"
         style="fill:#3b3738;fill-opacity:1;fill-rule:nonzero;stroke:none"
         id="path130" />
      <path
         d="m 46455.9,17796.3 c -46.6,-6 -92.3,-9.1 -135.5,-40.1 -27.1,-19.5 -36.7,-84.2 -15,-109.8 19.4,-22.6 40.5,-41.7 65,-43 48,-2.7 96,-5.2 143.9,-4.4 29.4,0.4 58.3,8.5 83.9,36.9 14.3,16 18.6,36.1 16.8,62.2 -3.4,49.8 -29,62.9 -51.5,71.7 -35.2,13.8 -71.7,18.1 -107.6,26.5 z m -2.3,69.6 c 15.7,0 31.6,3 47,-0.5 56.2,-13 103.1,-50.9 129.3,-138.2 10.7,-35.6 0.3,-93.5 -21.7,-129.9 -21.5,-35.6 -48,-55.4 -76.9,-71 -40.2,-21.7 -81.4,-18.5 -121.4,-10.4 -46.9,9.5 -89.9,39.1 -119.4,105.7 -19,42.9 -19.2,99.5 -0.1,138.7 35.1,72.2 81.1,106.6 137.2,107.2 8.7,0.1 17.3,0 26,0 0,-0.5 0,-1.1 0,-1.6"
         style="fill:#3b3738;fill-opacity:1;fill-rule:nonzero;stroke:none"
         id="path132" />
      <path
         d="m 46428.6,12803 c -6.3,8.6 -10.9,13.3 -14.3,19.7 -23.1,43.4 -51.7,62 -86.8,49.6 -5.8,-2 -11.8,-7.4 -16.3,-13.8 -17.2,-24.5 -22.5,-80.5 -12.1,-120.8 8.2,-31.3 34.1,-48.8 54.3,-40.4 36.1,14.9 51.6,65.6 75.2,105.7 z m 36.3,-41.9 c 17,-45.6 43.4,-63 71.3,-70.5 24.4,-6.6 48.2,3.5 67.7,32.5 16.2,24.1 13.7,55.1 13.3,84.9 -0.6,39.1 -13.7,68.4 -33.5,79.6 -16.5,9.3 -48.9,-6.7 -61.6,-29 -18.8,-33 -38.2,-65.1 -57.2,-97.5 z m -9.8,-29.2 c -16.4,-23.3 -32.7,-51 -51.7,-72.3 -39.4,-44.1 -76.1,-34 -106.1,26.3 -27.4,55.2 -26.8,118.3 -9.4,177.9 15.9,54.7 43.5,86.4 84.4,62.7 15.9,-9.3 28.3,-34.3 42,-52.8 3.6,-4.7 5.8,-11.8 8.8,-17.6 16.8,-31.9 17.8,-33.2 33.4,-0.3 17.4,36.5 36,70.5 64.4,81.4 16.3,6.3 35.7,11.6 50.7,3.1 49.6,-28.3 64.9,-94.1 63,-173.7 -1.8,-71.4 -44.2,-153.7 -98.4,-135.2 -13.7,4.7 -27.2,18.5 -38.4,33 -15.7,20.5 -29,45.5 -42.7,67.5"
         style="fill:#3b3738;fill-opacity:1;fill-rule:nonzero;stroke:none"
         id="path134" />
      <path
         d="m 46509.1,13499.4 c 0,0.3 0,0.6 0,0.9 5.9,0 11.9,-0.1 17.8,0 24.3,0.5 47.9,4.9 68.5,28.9 12.7,14.7 23.5,30.1 25.5,58.1 4.6,64.5 -17.8,87.9 -50.3,102.2 -27.1,12 -55,6.1 -81.8,-10.6 -41.3,-25.8 -59.7,-54.8 -44.7,-136 6.4,-34.2 13.9,-42 35.8,-43.4 9.7,-0.6 19.5,-0.1 29.2,-0.1 z m -220.6,257.7 c 12.7,-137.2 66.9,-208.2 145.6,-248.1 -2.4,14.9 -2.9,26.5 -6.1,35.5 -14.8,41.5 -15,85.7 -7,129 6.3,34.5 23.2,61.3 43,73 22.6,13.4 46.3,32.9 72.6,14.2 16.3,-11.6 34.8,-15.8 50.6,-28.9 28.3,-23.3 45.7,-63.7 49.4,-114.1 6.5,-90.8 -34.3,-174.6 -90,-190.5 -14.6,-4.1 -29.2,-9.9 -43.9,-10.7 -55.1,-2.8 -102.4,27.5 -145.7,83.9 -35.7,46.7 -58.3,105.1 -72.3,173 -5.1,24.4 -2.7,52.8 -3.7,79.4 2.5,1.4 5,2.9 7.5,4.3"
         style="fill:#3b3738;fill-opacity:1;fill-rule:nonzero;stroke:none"
         id="path136" />
      <path
         d="m 46375.8,18151.4 c 17.6,6 35.5,10.1 52.7,18.5 10.7,5.2 22.2,13.8 30.1,26.2 18.8,29.3 22.7,87.6 9.6,125.3 -3.2,9.2 -8.6,20.4 -14.3,22.8 -48.5,20.1 -95.4,13 -138.8,-29.8 -25.5,-25.1 -30.1,-87.6 -8.5,-120.7 19,-29 41.8,-43.8 69.2,-42.3 z m 250.9,-64.7 c -10.3,160.4 -88.8,227 -145.4,252 1.9,-12.2 2.2,-23.5 5.4,-32.1 13.9,-37.5 13.6,-77.9 9.8,-118.7 -4.5,-48.5 -39.7,-97 -77.3,-100.2 -32.5,-2.9 -65.1,-2.3 -93,28.2 -27,29.4 -49.1,65.5 -49.6,125 -0.4,40.8 0.9,79 20.4,109.8 17.2,27.3 35.1,51.2 58.3,65.8 34.1,21.5 69,20.3 103.2,11.2 36.1,-9.5 68.4,-37.1 97.6,-74.9 27.5,-35.6 48.5,-78.8 63.2,-129.4 10.8,-36.8 16.7,-76.7 13.7,-118.3 -0.3,-4.2 -2.7,-8.1 -6.3,-18.4"
         style="fill:#3b3738;fill-opacity:1;fill-rule:nonzero;stroke:none"
         id="path138" />
      <path
         d="m 46522.7,14823 c 0,69.2 0,129.8 0,187.8 -54.6,0 -107.8,0 -165.6,0 57.1,-64.8 109.9,-124.6 165.6,-187.8 z m 127.4,257.3 c 0,-22.6 0,-41.6 0,-65.4 -22.9,0 -45.3,0.1 -67.7,0 -22.5,0 -22.5,0 -22.5,-35.9 0,-56.1 0,-112.2 0,-168.2 0,-8.5 0,-17 0,-24 -35.6,-14.5 -57.7,21.3 -81.7,48.3 -37.8,42.4 -75.2,85.7 -112.9,128.3 -17.9,20.3 -36.2,39.7 -54.2,60 -11.8,13.3 -11.9,32.5 -9,56.4 72.8,0 145.9,0 220.4,0 0.5,16.4 1,29.2 1.3,42.1 0.7,35.5 0.8,35.7 22.2,33.8 3.7,-0.3 7.4,-0.9 13.8,-1.7 0,-16.9 0.3,-33.3 -0.1,-49.6 -0.4,-18.2 4.6,-24.7 15.6,-24.3 24.3,0.8 48.5,0.2 74.8,0.2"
         style="fill:#3b3738;fill-opacity:1;fill-rule:nonzero;stroke:none"
         id="path140" />
      <path
         d="m 46329.9,19863.3 c -8.6,-7.2 -21.5,-13.6 -30.9,-26.6 -19.4,-26.6 -23.9,-59.6 -12.7,-99.2 9.4,-32.9 40.7,-58.2 58.8,-37.8 18.5,20.8 34,49 50,75.2 2.5,4.2 3.1,17.7 0.9,22.5 -15.5,33.8 -36.1,55.4 -66.1,65.9 z m 179.4,-170.9 c 46.7,-2.5 79.3,46.6 65.7,119.9 -10.2,54.7 -51.1,73.1 -76.3,39 -19.4,-26.5 -37.4,-56 -54.9,-85.9 -3,-5.2 -2.9,-23.6 0.1,-28.2 19.1,-28.6 40.8,-49.3 65.4,-44.8 z m -80.4,35.7 c -14.6,-20.9 -28.6,-39.8 -41.8,-60.2 -26.3,-41 -71.1,-42.2 -99.4,14.1 -7.6,15 -12.7,36.1 -14.4,55.5 -2.3,26.5 -1.3,54.2 0.2,81.1 2.3,40.3 17.3,69.7 39.4,82.5 24.7,14.3 49.4,8.8 67.7,-28.2 10.2,-20.8 20.9,-41 31.4,-61.5 23.9,33.7 40.2,77.7 70.5,98 30.4,20.4 66,6.4 84.4,-31 27.5,-55.9 31.6,-127.3 7.7,-190.6 -23.9,-63.5 -81.5,-70.3 -110.3,-19.2 -11.6,20.7 -24,40.3 -35.4,59.5"
         style="fill:#3b3738;fill-opacity:1;fill-rule:nonzero;stroke:none"
         id="path142" />
      <path
         d="m 46569.2,16715.8 c 19.4,-11.7 38.9,-23.1 58.1,-35.5 1.9,-1.2 2.9,-9.1 2.9,-13.9 0.1,-102.4 0.1,-204.9 0.1,-316.7 -10.6,12.9 -18,20.3 -24.2,29.7 -28.1,43 -54.6,89.1 -84.2,129.4 -35.4,48.2 -70.4,99.6 -121.4,101.5 -28.3,1.1 -52.3,-9.9 -70.5,-46.6 -1.9,-3.9 -3.7,-8.5 -4.5,-13.3 -10,-60.1 -6.5,-118.2 32.5,-153.8 5.9,-5.4 10.9,-13.4 15.6,-26.2 -9.9,3 -20.4,3.6 -29.6,9.4 -36.1,22.7 -64,69.6 -64,139.5 0.1,72.7 19.3,126.7 60.2,154.7 21.4,14.6 45.3,12.5 67.9,-1.5 56.7,-35.2 98.9,-101.9 140.7,-169.7 12.9,-20.9 27.5,-39.2 41.5,-59 0,70.9 1.6,140.5 -1,209.6 -0.8,19.5 -14,37.7 -21.5,56.5 0.4,1.9 0.9,3.9 1.4,5.9"
         style="fill:#3b3738;fill-opacity:1;fill-rule:nonzero;stroke:none"
         id="path144" />
      <path
         d="m 46413.7,14102.8 c -18.8,13.4 -40.9,28 -62.4,44.9 -21.3,16.7 -41.9,35.6 -63.6,54.3 0,64.3 0,129.8 0,195.5 30.6,-6.3 38.9,-20.9 38.9,-67.8 0,-30.7 0.8,-61.5 -0.3,-92.1 -0.8,-23 0.6,-39.7 17.4,-45.9 10.7,-4 20.5,-14.5 30.3,-21.7 6.4,28.8 12.9,51.4 16.5,75.3 7.4,49.4 28.7,82.8 50.9,113.1 11.4,15.5 28.2,23.1 43.3,28.3 13.4,4.6 28.1,2.9 42,0.6 33.4,-5.5 58.5,-34.3 78.4,-77 20,-42.9 32.9,-89.7 32.1,-144.6 -0.5,-32.2 -4.2,-62.8 -22.7,-81.6 -4,-4 -11.6,-7.8 -14.3,-4.6 -5.9,6.9 -12.3,17.6 -13.5,28.2 -1.2,10.6 3.1,23.4 5.9,34.7 5.8,23.6 16.6,46.7 17.2,70.5 0.5,24.8 -5.2,53.9 -14,74.6 -20,47.3 -51.3,55.5 -84,45.7 -34,-10.1 -57.1,-46.9 -70.7,-95.2 -11.8,-41.6 -18,-87.3 -27.4,-135.2"
         style="fill:#3b3738;fill-opacity:1;fill-rule:nonzero;stroke:none"
         id="path146" />
      <path
         d="m 46454.8,15886.6 c -10.8,32.3 -17.6,61.6 -29.2,84.8 -24.3,48.8 -69.9,70.1 -100.5,16.6 -20.6,-36.1 -20.5,-96.7 1.6,-132.9 7.5,-12.2 13.7,-26.6 23,-44.8 -25.7,2.4 -39.1,27.7 -50.7,48.7 -17.5,31.4 -26.2,71 -23,116.7 3.2,46.2 17.3,79.9 41.7,97.9 26.6,19.6 53.4,11 76.1,-20.9 7.5,-10.4 14.2,-22.2 22.3,-31.1 2.1,-2.4 9.7,1.3 11.5,5.7 11.8,28.5 24.8,53.8 43.9,70.9 25.6,23.1 52.7,18.9 78,6.8 20.9,-10 41.5,-29.1 53.3,-62.7 9.3,-26.2 21.6,-51.9 25.4,-80.4 6.4,-46.7 13.1,-96.7 -4,-141.8 -4.6,-12 -11.4,-33.5 -24.9,-20.6 -12.3,11.7 -12.4,29.6 -6.3,53.4 7.1,28.4 13.1,58.1 16.9,88.1 5.4,43.3 -18.8,92.7 -45.1,104.7 -34.3,15.8 -63.2,0.2 -85.4,-40.4 -10.6,-19.2 -14.6,-48.4 -20.3,-73.9 -2.8,-12.4 -2.7,-26.6 -4.3,-44.8"
         style="fill:#3b3738;fill-opacity:1;fill-rule:nonzero;stroke:none"
         id="path148" />
      <path
         d="m 46631.1,17224.3 c 0,-66.9 0,-133.8 0,-200.7 -1,-0.5 -2.1,-1 -3.1,-1.5 -2.2,8.9 -5.2,17.6 -6.3,26.8 -4.3,34 -10.8,43.2 -32.7,43 -55.6,-0.4 -111.2,-0.3 -166.9,-1.7 -27.4,-0.7 -54.8,-4.5 -82.3,-6 -12.2,-0.7 -15.8,-12.3 -15.7,-29.1 0.2,-11.2 1.6,-22.3 2.4,-33.5 -1.7,-1.3 -3.4,-2.5 -5.1,-3.8 -13.5,42.8 -26.9,85.6 -42.2,134.1 13,1.6 21.8,3.5 30.7,3.6 65.3,0.7 130.7,0.1 196.1,1.9 32.8,0.9 65.5,6.3 98.3,9 11.3,0.9 15.8,10.2 17.2,27.5 0.8,10.9 3.8,21.3 5.8,32 1.3,-0.6 2.5,-1.1 3.8,-1.6"
         style="fill:#3b3738;fill-opacity:1;fill-rule:nonzero;stroke:none"
         id="path150" />
    </g>
  </g>
</svg>
